<?xml version="1.0" standalone="no"?>
<!DOCTYPE svg PUBLIC "-//W3C//DTD SVG 20010904//EN"
 "http://www.w3.org/TR/2001/REC-SVG-20010904/DTD/svg10.dtd">
<svg version="1.0" xmlns="http://www.w3.org/2000/svg"
 width="1000.000000pt" height="999.000000pt" viewBox="0 0 1000.000000 999.000000"
 preserveAspectRatio="xMidYMid meet">

<g transform="translate(0.000000,999.000000) scale(0.100000,-0.100000)"
fill="#000000" stroke="none">
<path d="M8885 9588 c-11 -6 -22 -15 -25 -19 -3 -4 -63 -40 -135 -81 -141 -81
-187 -110 -465 -292 -405 -264 -640 -428 -934 -649 -224 -168 -377 -298 -555
-472 -232 -226 -321 -357 -321 -468 0 -53 24 -108 59 -134 21 -16 180 -17 218
-2 79 32 105 45 187 92 97 54 212 132 261 174 210 182 578 536 730 703 33 36
83 90 110 120 28 30 97 109 154 175 137 159 271 304 472 510 231 236 279 294
279 340 0 18 -8 19 -35 3z m-853 -725 c-36 -50 -660 -664 -713 -701 -10 -7
-24 -22 -29 -33 -9 -16 -7 -19 13 -19 15 0 52 24 98 63 113 96 170 137 190
137 11 0 19 -4 19 -9 0 -10 -69 -104 -125 -171 -55 -66 -353 -357 -421 -412
-197 -156 -384 -215 -489 -153 -53 30 -61 59 -40 133 40 135 178 279 440 459
66 46 167 119 225 164 207 159 292 208 309 180 5 -8 87 51 237 169 190 151
281 217 302 220 2 0 -5 -12 -16 -27z m-112 -259 c0 -39 -210 -247 -244 -242
-10 2 -21 9 -24 17 -5 15 156 178 208 210 35 21 60 27 60 15z"/>
<path d="M7708 9313 c-1 -5 -21 -18 -43 -29 -22 -12 -69 -38 -105 -59 -36 -21
-85 -49 -110 -63 -25 -14 -74 -42 -109 -64 -34 -21 -65 -38 -67 -38 -2 0 -54
-30 -116 -67 -62 -37 -122 -72 -133 -77 -62 -34 -561 -334 -730 -439 -44 -27
-93 -58 -110 -67 -49 -28 -298 -181 -325 -200 -38 -26 -210 -130 -216 -130 -3
0 -24 -13 -47 -28 -48 -33 -192 -110 -417 -223 -150 -76 -468 -229 -476 -229
-2 0 -32 -13 -66 -29 -35 -15 -79 -32 -98 -36 l-35 -7 25 22 c14 12 97 70 185
128 210 138 355 242 355 253 0 16 -51 -10 -238 -123 -65 -39 -129 -79 -144
-89 -28 -20 -53 -25 -43 -9 15 24 421 318 628 455 306 202 276 210 -48 12 -71
-44 -142 -88 -157 -98 -14 -11 -28 -19 -31 -19 -5 0 -116 -67 -335 -203 -68
-43 -126 -77 -128 -77 -2 0 -41 -24 -87 -54 -76 -50 -216 -137 -347 -216 -96
-58 -380 -241 -513 -329 -70 -47 -135 -90 -145 -96 -9 -5 -19 -12 -22 -15 -65
-68 -223 -137 -255 -110 -21 18 -19 77 6 111 39 55 4 29 -74 -55 -86 -92 -154
-136 -213 -136 -23 0 -49 -8 -64 -20 -14 -11 -29 -20 -33 -20 -4 0 -35 -18
-67 -40 -86 -58 -106 -54 -100 20 1 20 -1 23 -11 13 -7 -7 -29 -13 -48 -13
-40 0 -131 -61 -131 -88 0 -9 -36 -44 -180 -172 -31 -27 -81 -55 -145 -80 -11
-4 -33 -13 -48 -19 -23 -9 -29 -8 -34 5 -7 20 38 105 88 165 22 26 39 51 39
55 0 5 -4 4 -8 -3 -4 -6 -20 -15 -36 -19 -26 -6 -27 -5 -17 14 6 11 18 28 27
36 8 9 14 21 12 26 -4 13 -84 -63 -135 -130 -24 -30 -54 -66 -69 -79 -63 -60
-134 -164 -134 -199 0 -28 -84 -142 -105 -142 -4 0 -28 -15 -54 -34 -70 -51
-112 -72 -159 -80 l-43 -6 7 47 c4 27 14 58 22 71 8 12 13 24 11 27 -7 7 -75
-29 -142 -75 -59 -41 -66 -49 -76 -93 -6 -27 -11 -69 -11 -94 0 -95 -53 -209
-142 -303 -18 -20 -55 -63 -83 -95 -27 -33 -63 -74 -80 -90 -16 -17 -43 -48
-60 -69 -16 -22 -35 -44 -40 -50 -6 -6 -24 -29 -40 -51 -16 -22 -37 -47 -45
-55 -23 -22 -62 -80 -55 -80 4 0 24 19 44 43 119 139 383 401 522 519 101 85
113 94 164 132 22 17 42 33 45 36 3 4 28 22 55 40 28 19 55 38 60 42 53 42 90
68 106 73 10 4 19 11 19 16 0 5 7 9 15 9 8 0 15 5 15 10 0 6 5 10 12 10 6 0
25 11 43 24 17 14 48 34 68 45 20 12 52 30 71 40 19 11 52 31 73 43 21 13 119
64 218 112 174 86 215 105 300 141 83 34 90 38 107 46 10 5 27 9 37 9 11 0 23
5 26 10 3 6 17 10 31 10 13 0 24 5 24 10 0 6 9 10 20 10 11 0 28 4 38 9 39 21
156 51 164 43 5 -5 1 -19 -10 -33 -17 -22 -47 -81 -83 -166 -8 -18 -17 -33
-20 -33 -4 0 -9 -12 -12 -27 -3 -16 -11 -53 -18 -83 -13 -63 -7 -226 11 -280
31 -94 90 -179 153 -220 84 -55 191 -80 348 -80 183 0 337 38 474 117 22 13
78 42 125 65 69 34 321 194 340 217 3 3 28 24 55 46 52 41 175 148 229 200 18
17 77 73 131 125 122 117 186 173 300 265 47 38 53 40 110 38 33 -1 105 -12
160 -24 55 -12 118 -25 140 -30 53 -11 178 -41 235 -58 19 -5 53 -15 75 -21
55 -16 276 -89 300 -99 11 -5 67 -28 125 -51 58 -23 124 -51 147 -61 24 -11
54 -24 68 -29 39 -15 42 -38 9 -69 -62 -57 -362 -318 -414 -361 -30 -24 -73
-60 -96 -80 -22 -19 -55 -48 -73 -63 -18 -16 -75 -58 -128 -94 -103 -71 -138
-75 -77 -7 167 182 177 206 39 100 -22 -17 -45 -35 -51 -41 -6 -5 -48 -41 -92
-80 -180 -158 -651 -646 -862 -895 -35 -41 -67 -77 -70 -80 -3 -3 -28 -32 -55
-65 -70 -84 -104 -117 -115 -113 -6 2 -1 18 10 38 11 19 23 43 26 53 4 9 10
17 15 17 5 0 9 5 9 10 0 6 37 68 82 138 78 120 115 173 176 251 14 18 32 44
39 58 l13 25 -33 -19 c-30 -17 -167 -175 -309 -353 -33 -41 -67 -84 -76 -95
-9 -11 -62 -88 -117 -170 -97 -145 -198 -336 -245 -460 -13 -33 -29 -73 -36
-90 -32 -77 -65 -191 -83 -295 -27 -152 -21 -364 14 -432 8 -17 15 -36 15 -42
0 -6 9 -22 20 -36 11 -14 20 -33 20 -43 0 -23 58 -110 107 -162 71 -75 108
-95 223 -117 75 -14 319 -21 345 -10 11 6 40 15 65 22 126 32 257 89 495 215
56 29 228 134 250 153 6 4 42 30 80 57 66 47 93 67 119 90 6 6 34 28 61 50 93
73 257 233 381 372 43 48 82 90 85 93 28 24 242 306 329 435 59 87 125 204
118 211 -3 2 -36 -35 -74 -83 -85 -108 -85 -108 -126 -159 -18 -23 -67 -85
-108 -137 -67 -85 -309 -334 -415 -427 -43 -38 -147 -126 -178 -150 -11 -8
-24 -20 -31 -25 -35 -32 -76 -55 -76 -43 0 14 24 43 99 123 57 61 141 168 141
180 0 5 -84 -76 -187 -181 -180 -182 -287 -271 -314 -262 -10 3 84 114 209
247 45 47 184 215 217 261 22 30 43 57 47 58 5 2 8 9 8 15 0 9 80 119 100 137
38 36 294 402 330 473 7 15 17 27 22 27 4 0 8 4 8 9 0 5 29 51 64 102 71 104
136 222 136 246 0 10 -17 -3 -42 -30 -23 -26 -46 -47 -51 -47 -11 0 -1 68 20
135 22 70 50 129 98 205 23 36 52 88 65 115 25 52 439 683 466 709 14 14 24
10 97 -41 45 -32 84 -60 87 -63 3 -3 23 -19 45 -35 22 -16 47 -35 55 -42 8 -7
33 -26 55 -43 22 -18 58 -48 80 -68 22 -20 56 -49 75 -63 57 -43 150 -139 150
-154 0 -15 -32 -55 -112 -140 -84 -90 -117 -142 -206 -320 -81 -164 -82 -168
-89 -287 -4 -68 -2 -82 18 -110 52 -76 128 -118 212 -118 109 0 392 194 503
345 16 22 31 42 34 45 3 3 19 26 35 52 32 51 58 61 75 29 5 -11 16 -25 23 -33
28 -28 167 -232 167 -245 0 -15 -57 -103 -125 -193 -23 -30 -45 -62 -48 -70
-10 -22 -179 -278 -267 -406 -42 -60 -82 -121 -89 -136 -8 -15 -42 -62 -75
-105 -99 -126 -206 -297 -277 -441 -35 -73 -41 -93 -42 -157 -1 -85 9 -110 61
-144 49 -32 138 -32 206 -1 95 45 140 114 334 520 20 41 51 98 69 127 18 29
33 54 33 56 0 3 25 47 56 98 31 52 66 110 77 129 29 52 142 279 161 325 9 22
29 66 43 97 24 52 28 56 42 44 9 -8 30 -41 46 -73 16 -32 32 -60 35 -63 12
-12 170 -347 170 -361 0 -5 4 -17 9 -27 9 -17 26 -58 42 -97 4 -11 19 -54 34
-95 15 -41 30 -84 35 -95 4 -11 13 -40 20 -65 7 -25 19 -65 27 -90 34 -106 66
-236 93 -370 5 -25 16 -81 24 -125 19 -95 33 -192 48 -335 15 -141 15 -807 0
-935 -7 -55 -16 -136 -22 -180 -5 -44 -16 -107 -25 -140 -9 -33 -21 -78 -26
-100 -6 -22 -12 -74 -14 -115 -2 -41 -1 -61 2 -44 2 18 16 43 32 56 16 15 35
48 45 79 19 60 28 83 62 149 51 101 128 263 145 305 43 107 93 324 87 379 -3
28 -9 19 -56 -75 -50 -102 -110 -179 -139 -179 -16 0 -19 125 -3 135 6 3 10
17 10 30 0 13 4 26 9 30 19 11 24 128 8 173 -23 66 1 130 84 218 34 37 52 67
64 109 17 56 17 59 -4 95 -37 66 -29 109 39 225 67 115 110 225 110 279 l-1
41 -29 -70 c-36 -86 -76 -125 -126 -125 -139 0 -166 134 -57 280 22 30 52 68
67 83 40 43 42 68 11 144 -31 77 -34 119 -21 314 5 69 6 139 1 155 -7 29 -7
29 -20 -16 -7 -25 -18 -70 -25 -100 -21 -97 -58 -213 -89 -275 -23 -49 -30
-56 -37 -41 -4 10 -2 46 4 81 7 34 12 124 12 200 0 146 0 148 -67 265 -11 20
-23 49 -26 65 -3 17 -11 53 -16 80 -6 28 -14 74 -17 103 -4 29 -11 49 -15 45
-4 -4 -12 -57 -18 -118 -9 -107 -35 -200 -52 -189 -5 3 -9 29 -9 59 0 63 -22
162 -53 243 -29 77 -28 170 2 237 31 68 51 147 50 198 l0 42 -30 -63 c-38 -78
-84 -115 -142 -115 -69 0 -99 27 -117 102 -10 39 -1 58 105 246 34 61 73 130
87 155 14 25 62 105 107 178 44 73 81 134 81 136 0 2 18 33 39 69 22 35 46 80
54 98 8 19 54 97 104 174 185 289 230 365 213 365 -5 0 -10 -4 -10 -8 0 -5 -9
-18 -19 -29 -20 -22 -208 -295 -296 -430 -27 -42 -86 -122 -130 -178 -88 -109
-249 -325 -335 -448 -104 -148 -100 -145 -119 -92 -7 19 -18 35 -26 35 -7 0
-23 12 -34 26 -31 39 -28 101 7 151 27 41 103 105 148 125 13 6 24 16 24 21 0
6 7 19 17 29 9 10 11 18 5 18 -6 0 -12 -4 -14 -9 -1 -4 -42 -26 -89 -48 -47
-22 -104 -56 -126 -76 -49 -45 -83 -59 -103 -43 -23 18 -40 53 -40 83 0 24 31
88 49 103 3 3 33 41 65 85 63 85 197 257 207 265 3 3 32 41 65 85 32 44 61 82
64 85 3 3 19 23 35 45 16 22 35 47 42 55 7 8 56 71 110 140 53 69 100 127 103
130 3 3 17 21 32 40 14 19 34 44 45 55 32 35 198 238 223 275 l25 35 -30 -22
c-49 -35 -163 -158 -284 -308 -81 -100 -382 -376 -389 -356 -3 10 39 99 88
181 29 50 33 80 11 80 -6 0 -41 -26 -79 -57 -38 -32 -86 -71 -107 -88 -21 -16
-62 -50 -91 -73 -29 -24 -58 -42 -64 -40 -6 2 47 57 117 123 274 255 861 856
1044 1070 54 62 62 75 51 75 -17 0 -146 -125 -502 -484 -335 -339 -627 -618
-1081 -1035 -108 -99 -124 -106 -167 -75 -35 24 -26 52 43 149 35 49 62 91 60
94 -3 2 -42 -35 -87 -83 -46 -47 -91 -86 -100 -86 -21 0 -54 41 -67 83 -6 18
-12 70 -14 117 -4 81 -5 85 -27 82 -12 -1 -35 -11 -50 -22 -15 -11 -32 -20
-37 -20 -5 0 -15 21 -22 48 -7 26 -18 61 -24 77 -7 17 -12 65 -11 108 l1 78
-58 -59 c-59 -60 -85 -72 -162 -72 -39 0 -83 25 -90 52 -6 21 9 54 37 84 6 7
29 35 51 64 70 91 458 565 475 580 3 3 37 43 75 90 38 47 158 186 265 310 205
235 350 408 350 415 0 17 -32 -11 -152 -132 -223 -228 -346 -364 -579 -643
-158 -189 -393 -476 -454 -554 -34 -44 -127 -158 -135 -166 -3 -3 -23 -27 -45
-55 -22 -27 -44 -55 -50 -61 -5 -7 -28 -35 -50 -64 -54 -70 -357 -444 -365
-450 -3 -3 -13 -14 -21 -26 -8 -11 -31 -41 -51 -65 -20 -24 -71 -85 -112 -136
-92 -112 -108 -124 -67 -47 27 48 186 282 228 334 6 8 29 38 49 65 21 28 72
95 113 150 109 143 161 219 155 225 -6 5 -116 -107 -171 -176 -18 -21 -74 -91
-125 -154 -52 -63 -115 -144 -140 -180 -25 -36 -54 -74 -65 -85 -10 -11 -35
-40 -55 -65 -41 -50 -52 -63 -154 -176 -39 -43 -106 -122 -148 -174 -42 -52
-82 -102 -89 -110 -69 -86 -259 -419 -296 -520 -7 -19 -17 -44 -21 -55 -4 -11
-14 -47 -21 -80 -7 -33 -23 -89 -36 -125 -13 -36 -23 -72 -22 -80 0 -13 1 -13
6 0 3 8 17 26 30 40 13 13 31 43 41 65 11 22 32 68 47 103 46 101 91 74 66
-40 -25 -112 -44 -172 -83 -255 -21 -46 -97 -169 -124 -202 -7 -9 -32 -41 -56
-72 -208 -271 -595 -621 -774 -701 -182 -80 -375 -60 -518 54 -133 105 -170
197 -170 418 0 128 18 208 71 317 116 239 236 393 571 732 90 92 250 256 355
366 331 344 404 412 433 401 13 -5 12 -13 -12 -56 -15 -27 -34 -57 -43 -67 -9
-10 -38 -45 -66 -78 -27 -33 -64 -76 -82 -95 -36 -40 -56 -63 -121 -139 -26
-30 -68 -78 -93 -108 -72 -83 -162 -203 -157 -209 6 -5 71 30 98 52 8 6 32 21
53 33 89 50 109 62 191 115 95 61 218 159 311 247 33 32 80 75 104 96 102 88
306 287 385 374 27 30 76 83 110 120 33 36 88 96 121 134 33 38 77 87 97 109
21 23 38 47 38 55 0 12 -82 -58 -250 -214 -36 -33 -119 -109 -185 -170 -66
-60 -170 -159 -231 -218 -137 -134 -204 -182 -204 -146 0 11 96 108 275 281
157 150 205 211 90 113 -64 -54 -102 -73 -74 -37 8 9 17 19 20 22 3 3 11 22
18 42 9 26 40 62 109 125 53 48 99 90 102 93 3 3 51 43 108 88 56 46 143 121
193 168 122 114 127 105 21 -36 -19 -25 -40 -48 -46 -52 -7 -5 -5 -8 6 -8 29
0 756 733 904 910 71 85 171 202 224 260 52 58 99 110 105 116 5 6 254 257
553 557 298 300 542 550 542 557 0 6 -28 -12 -62 -40 -62 -51 -498 -429 -508
-440 -3 -3 -27 -25 -55 -49 -27 -24 -73 -65 -100 -90 -28 -25 -73 -66 -100
-91 -57 -51 -268 -245 -299 -275 -12 -11 -64 -60 -116 -110 -114 -107 -258
-245 -564 -540 -125 -121 -234 -221 -242 -223 -29 -7 -71 51 -80 109 -4 29 -7
60 -5 67 1 8 -13 3 -36 -12 -79 -54 -173 -22 -173 59 0 31 31 110 49 125 3 3
17 17 30 32 l24 27 -54 -20 c-88 -34 -136 -69 -165 -123 -43 -79 -67 -96 -135
-96 -69 0 -89 19 -89 87 0 40 -2 43 -27 43 -54 0 -98 19 -116 49 -17 28 -16
29 11 58 15 16 38 37 52 47 l25 18 -25 -5 c-14 -3 -52 -12 -85 -20 -33 -9 -72
-18 -86 -21 -14 -3 -46 -22 -72 -41 -26 -20 -69 -47 -97 -61 -44 -22 -60 -25
-123 -21 -69 4 -153 19 -163 29 -2 3 53 43 123 89 88 58 139 99 163 131 19 26
68 71 109 100 41 29 81 65 90 80 9 15 37 46 64 69 46 39 53 62 19 58 -38 -3
-62 2 -62 14 1 6 61 75 135 152 73 77 132 141 130 143 -1 1 -27 -12 -56 -29
-203 -121 -433 -297 -507 -387 -29 -36 -51 -67 -48 -69 2 -2 24 5 48 17 55 27
168 40 168 18 0 -8 -46 -45 -102 -84 -115 -78 -193 -138 -258 -199 -39 -37
-151 -115 -165 -115 -2 0 -26 -13 -52 -30 -51 -32 -89 -40 -80 -16 7 17 103
151 128 179 9 9 22 30 30 45 8 15 20 33 27 41 7 7 11 15 9 18 -6 5 -133 -122
-178 -178 -107 -132 -166 -198 -293 -325 -78 -78 -159 -162 -182 -186 -38 -42
-247 -213 -322 -264 -38 -26 -50 -28 -71 -15 -20 13 -5 32 70 93 101 81 188
156 250 212 31 28 71 64 90 80 139 119 508 476 594 576 79 91 275 299 360 383
108 106 349 334 405 383 24 21 54 47 65 58 44 40 424 365 482 412 33 27 148
119 255 204 282 227 437 343 715 536 84 58 159 111 167 119 8 8 18 15 23 15 4
0 17 7 27 15 16 12 17 15 4 15 -9 0 -18 -3 -20 -7z m-1718 -1187 c0 -20 -90
-99 -174 -153 -39 -25 -102 -76 -141 -113 -38 -38 -93 -86 -120 -107 -92 -72
-279 -249 -370 -349 -49 -54 -92 -101 -95 -104 -3 -3 -18 -23 -35 -45 -16 -22
-38 -49 -48 -60 -11 -11 -49 -58 -85 -105 -36 -47 -89 -112 -117 -144 -27 -33
-68 -83 -90 -112 -239 -315 -394 -484 -550 -599 -22 -17 -42 -33 -45 -36 -3
-4 -63 -46 -134 -94 -122 -83 -258 -155 -291 -155 -8 0 -23 -4 -33 -9 -62 -33
-225 -39 -342 -14 -103 23 -207 82 -241 136 -22 37 -26 133 -8 201 25 97 33
122 41 131 4 5 8 14 8 21 0 15 42 106 81 174 41 73 93 144 149 204 44 48 201
171 250 196 14 7 79 47 145 90 66 42 136 84 155 92 19 9 74 35 122 57 48 22
111 50 140 62 29 12 67 27 83 34 17 7 81 34 144 59 120 49 125 52 345 153 77
35 147 62 155 60 28 -6 -253 -177 -498 -304 -135 -70 -241 -131 -241 -138 0
-10 79 25 281 124 125 61 237 111 250 111 l24 0 -25 -24 c-37 -34 -479 -326
-496 -326 -2 0 -22 -13 -46 -29 -24 -15 -63 -40 -88 -53 -25 -14 -79 -48 -120
-75 -103 -69 -114 -74 -147 -67 -22 4 -40 -2 -78 -28 -28 -19 -76 -49 -108
-66 -31 -17 -76 -48 -99 -69 -119 -107 -160 -150 -196 -207 -38 -57 -60 -106
-48 -106 2 0 29 31 59 70 50 64 213 211 265 239 24 13 43 7 41 -12 -3 -26 1
-47 10 -47 6 0 83 47 173 104 90 57 213 134 273 171 377 234 510 330 630 455
31 33 141 110 156 110 23 0 5 -40 -28 -66 -110 -82 -363 -369 -381 -431 -7
-24 -17 -43 -22 -43 -12 0 -95 -82 -150 -150 -25 -30 -74 -86 -110 -125 -125
-134 -149 -190 -42 -98 172 149 403 381 597 600 77 87 208 226 290 310 113
115 146 153 133 157 -10 2 -18 13 -18 23 0 17 34 42 139 102 15 9 67 41 115
71 190 120 287 180 290 180 2 0 52 29 111 65 59 36 109 65 112 65 2 0 21 11
41 25 42 29 52 31 52 11z m2496 -2180 c-25 -45 -97 -157 -106 -166 -14 -13
-138 -230 -152 -265 -9 -22 -27 -65 -41 -95 -14 -31 -35 -80 -47 -110 -30 -78
-113 -231 -176 -326 -86 -131 -187 -221 -324 -290 -58 -29 -153 -37 -193 -15
-31 16 -57 66 -57 107 0 69 45 137 183 281 128 132 227 222 297 272 54 38 359
351 486 498 97 112 136 151 152 153 1 0 -8 -20 -22 -44z m-346 -252 c0 -14
-49 -70 -185 -209 -16 -17 -73 -66 -125 -108 -52 -42 -132 -108 -178 -147 -46
-38 -86 -70 -90 -70 -21 1 -34 20 -29 41 9 36 121 146 222 219 50 36 124 97
165 136 142 134 220 183 220 138z m-2680 -488 c0 -2 -7 -6 -15 -10 -8 -3 -15
-1 -15 4 0 6 7 10 15 10 8 0 15 -2 15 -4z m3213 -256 c-6 -22 -31 -46 -39 -37
-8 8 28 67 37 61 4 -2 5 -13 2 -24z m-243 -281 c0 -23 -14 -49 -190 -354 -29
-51 -182 -299 -190 -310 -11 -15 -48 -80 -85 -155 -22 -43 -35 -87 -40 -130
-4 -36 -11 -81 -15 -100 -5 -19 -14 -68 -20 -108 -15 -111 -95 -259 -180 -336
-41 -37 -44 -38 -106 -34 -42 3 -69 10 -82 22 -26 23 -44 96 -33 132 5 16 15
49 22 74 7 25 34 76 59 114 95 144 116 175 150 217 41 50 324 476 392 590 116
191 276 399 308 399 5 0 10 -9 10 -21z m-85 -327 c-18 -47 -83 -175 -157 -305
-21 -38 -38 -71 -38 -73 0 -2 -15 -28 -34 -57 -31 -49 -62 -100 -90 -152 -30
-56 -45 -69 -61 -55 -8 7 -15 21 -15 31 0 42 155 317 305 539 99 147 126 168
90 72z m737 -319 c42 -47 51 -232 15 -302 -9 -19 -17 -38 -17 -43 0 -20 -32
-118 -38 -118 -4 0 -15 28 -25 63 -10 34 -22 76 -27 93 -6 17 -10 40 -10 52 0
11 -5 24 -11 28 -11 6 -8 76 7 154 15 76 70 114 106 73z"/>
<path d="M5508 8333 c7 -3 16 -2 19 1 4 3 -2 6 -13 5 -11 0 -14 -3 -6 -6z"/>
<path d="M9801 7347 c-56 -49 -471 -468 -526 -532 -39 -44 -80 -91 -92 -104
-12 -14 -20 -27 -18 -29 2 -2 70 65 152 148 81 84 202 208 268 275 66 68 149
153 185 189 35 36 60 66 55 66 -6 -1 -16 -6 -24 -13z"/>
<path d="M6528 7053 c7 -3 16 -2 19 1 4 3 -2 6 -13 5 -11 0 -14 -3 -6 -6z"/>
<path d="M2705 6991 c-56 -32 -91 -66 -77 -75 5 -3 22 6 38 19 16 14 33 25 37
25 4 0 22 13 40 30 40 38 26 38 -38 1z"/>
<path d="M7750 6422 c0 -7 -6 -12 -14 -12 -8 0 -28 -16 -45 -35 -25 -28 -31
-45 -31 -80 0 -99 50 -52 85 80 7 27 11 52 9 54 -2 2 -4 -1 -4 -7z"/>
<path d="M7063 5709 c-17 -24 -40 -63 -51 -85 -12 -23 -48 -77 -80 -120 -71
-96 -143 -225 -233 -419 -18 -38 -43 -85 -57 -104 -14 -18 -38 -61 -55 -95
-33 -66 -97 -169 -109 -174 -5 -2 -8 -8 -8 -13 0 -4 -21 -40 -46 -79 -52 -81
-50 -105 4 -44 45 50 232 320 232 334 0 6 5 10 10 10 6 0 10 5 10 11 0 6 17
36 39 67 61 91 141 222 141 232 0 6 5 10 10 10 6 0 10 4 10 10 0 5 14 33 31
62 65 109 157 301 179 374 19 64 8 74 -27 23z"/>
<path d="M6134 5457 c-10 -11 -130 -127 -362 -350 -49 -46 -94 -101 -114 -137
-18 -33 -36 -60 -40 -60 -5 0 -8 -5 -8 -11 0 -6 -8 -23 -19 -37 -31 -45 -84
-153 -77 -159 8 -8 144 133 180 187 24 37 30 41 38 27 7 -14 17 -6 58 48 28
35 50 67 50 70 0 3 5 11 10 18 6 7 29 37 51 67 22 30 48 65 57 78 54 74 167
221 188 245 13 15 19 27 12 27 -7 -1 -18 -6 -24 -13z"/>
<path d="M710 5135 c-7 -9 -11 -17 -9 -20 3 -2 10 5 17 15 14 24 10 26 -8 5z"/>
<path d="M680 5098 c0 -9 -6 -19 -12 -21 -10 -4 -10 -6 0 -6 14 -1 28 26 18
36 -3 4 -6 -1 -6 -9z"/>
<path d="M8973 1115 c0 -22 2 -30 4 -17 2 12 2 30 0 40 -3 9 -5 -1 -4 -23z"/>
<path d="M8951 1034 c0 -11 3 -14 6 -6 3 7 2 16 -1 19 -3 4 -6 -2 -5 -13z"/>
</g>
</svg>
